<mxfile host="app.diagrams.net" modified="2023-07-12T15:15:00.982Z" agent="Mozilla/5.0 (X11; Linux x86_64) AppleWebKit/537.36 (KHTML, like Gecko) Chrome/114.0.0.0 Safari/537.36" version="21.6.2" etag="sykxh6pgB-miVi-J-ZLN" type="github">
  <diagram name="Page-1" id="rxm6skmp1ulTzSu3YMZ-">
    <mxGraphModel>
      <root>
        <mxCell id="0" />
        <mxCell id="1" parent="0" />
      </root>
    </mxGraphModel>
  </diagram>
</mxfile>
